# xmcd
#
# Track frame offsets:
#	183
#	12935
#	22935
#	31603
#	43583
#	57520
#	67113
#	78728
#	90043
#	100230
#	109630
#	122673
#	132800
#	144285
#	156935
#	166803
#	177670
#	193305
#
# Disc length: 2707 seconds
#
# Revision: 0
# Processed by: cddbd v1.4PL0 Copyright (c) Steve Scherf et al.
# Submitted via: audiograbber 1.81.02
#
DISCID=e70a9112
DTITLE=Various Artist - Country and Western - Volume 1
DYEAR=1900
DGENRE=
TTITLE0=Johnny Cash - Folsom Prision Blues
TTITLE1=Johnny Cash - Hey Porter
TTITLE2=Conway Twitty - Blue Is The Way I Feel
TTITLE3=Conway Twitty - You Made Me What I Am
TTITLE4=Willie Nelson - Home Is Where You're Happy
TTITLE5=Willie Nelson - I'm Building Heartaches
TTITLE6=Patsy Cline - I've Loved And Lost Again
TTITLE7=Patsy Cline - Just Out Of Reach
TTITLE8=Faron Young - Hello Walls
TTITLE9=Faron Young - I Can't Help It
TTITLE10=Don Williams - Where Do We Go From Here
TTITLE11=Don Williams - Take My Hand For A While
TTITLE12=Johnny Paycheck - World's Worst Loser
TTITLE13=Johnny Paycheck - I Can't Change Overnight
TTITLE14=Dolly Parton - I Don't Need To Know That Right Now
TTITLE15=Dolly Parton - Georgia In A Jug
TTITLE16=Ray Pillow - Release Me
TTITLE17=Ray Pillow - It Wasn't God Who Made Honky Tonk Angels
EXTD=
EXTT0=
EXTT1=
EXTT2=
EXTT3=
EXTT4=
EXTT5=
EXTT6=
EXTT7=
EXTT8=
EXTT9=
EXTT10=
EXTT11=
EXTT12=
EXTT13=
EXTT14=
EXTT15=
EXTT16=
EXTT17=
PLAYORDER=
